# xmcd CD database file
#
# Track frame offsets:
#	150
#	11047
#	21380
#	32327
#	42892
#	54870
#	65085
#	102852
#	143962
#	201182
#
# Disc length: 3578 seconds
#
# Revision: 5
# Processed by: cddbd v1.5.2PL0 Copyright (c) Steve Scherf et al.
# Submitted via: CDex 1.51
#
DISCID=840df80a
DTITLE=Olivier Messiaen - Petites esquisses d'oiseaux - Catalogue d'oiseaux  (Håkon Austbø, piano)
DYEAR=1996
DGENRE=Musique Contemporaine
TTITLE0=Petites esquisses d'oiseaux [1985] - I. Le rouge-gorge
TTITLE1=Petites esquisses d'oiseaux [1985] - II. Le merle-noir
TTITLE2=Petites esquisses d'oiseaux [1985] - III. Le rouge-gorge
TTITLE3=Petites esquisses d'oiseaux [1985] - IV. La grive-musicienne
TTITLE4=Petites esquisses d'oiseaux [1985] - V. Le rouge-gorge
TTITLE5=Petites esquisses d'oiseaux [1985] - VI. L'alouette des champs
TTITLE6=Catalogue d'oiseaux [1956-1958] - 1er Livre - I. Le chocard des Alpes
TTITLE7=Catalogue d'oiseaux [1956-1958] - 1er Livre - II. Le loriot
TTITLE8=Catalogue d'oiseaux [1956-1958] - 1er Livre - III. Le merle bleu
TTITLE9=Catalogue d'oiseaux [1956-1958] - 2ème Livre - IV. Le traquet stapazin
EXTD=Hakan Austbo: piano YEAR: 1996
EXTT0=
EXTT1=
EXTT2=
EXTT3=
EXTT4=
EXTT5=
EXTT6=
EXTT7=
EXTT8=
EXTT9=
PLAYORDER=
